<?xml version="1.0" encoding="utf-8"?>
<!-- Generator: Adobe Illustrator 25.0.0, SVG Export Plug-In . SVG Version: 6.00 Build 0)  -->
<svg version="1.1" id="Слой_1" xmlns="http://www.w3.org/2000/svg" xmlns:xlink="http://www.w3.org/1999/xlink" x="0px" y="0px"
	 viewBox="0 0 480 480" style="enable-background:new 0 0 480 480;" xml:space="preserve">
<style type="text/css">
	.st0{fill:#E34624;}
</style>
<path class="st0" d="M8,448h24v24c0,4.4,3.6,8,8,8h336c4.4,0,8-3.6,8-8v-32h-16v24H48v-16h184v-16H16V88h64c4.4,0,8-3.6,8-8V16h248
	v152h16V48h16v136h16V40c0-4.4-3.6-8-8-8h-24V8c0-4.4-3.6-8-8-8H80c-0.2,0-0.3,0.1-0.5,0.1c-0.7,0-1.4,0.2-2.1,0.4
	c-0.2,0.1-0.5,0.2-0.7,0.2c-0.9,0.4-1.7,0.9-2.4,1.6l-72,72c-0.7,0.7-1.2,1.5-1.6,2.3c-0.1,0.2-0.2,0.5-0.3,0.7
	c-0.2,0.7-0.4,1.4-0.4,2.1c0,0.2-0.1,0.3-0.1,0.5v360c0,2.1,0.8,4.2,2.4,5.7C3.9,447.2,5.9,448,8,448z M72,27.3V72H27.3L72,27.3z"/>
<path class="st0" d="M248,176v-8h64v-40c0-12.4-9.5-22.8-21.9-23.9c-0.7-0.1-1.4-0.1-2.1-0.1H64c-13.3,0-24,10.7-24,24v256
	c0,13.3,10.7,24,24,24h120v-16h-80v-24h64v-16h-64v-24h56v-16h-56v-24h57.6v-16H104v-24h72v-16h-72v-24h104v-16H104v-24h128v8H248z
	 M288.7,120.1c4.1,0.3,7.4,3.8,7.3,7.9v24h-48V120h39.7C288,120,288.3,120.1,288.7,120.1z M64,120h24v32H56v-24
	C56,123.6,59.6,120,64,120z M88,392H64c-4.4,0-8-3.6-8-8v-16h32V392z M88,352H56v-24h32V352z M88,312H56v-24h32V312z M88,272H56v-24
	h32V272z M88,232H56v-24h32V232z M88,192H56v-24h32V192z M104,152v-32l128,0v32H104z"/>
<path class="st0" d="M120,72h64v16h-64V72z"/>
<path class="st0" d="M200,72h32v16h-32V72z"/>
<path class="st0" d="M120,40h112v16H120V40z"/>
<path class="st0" d="M413.7,378.3l-1,1c35-56.3,21.5-129.9-31.2-170.1c-52.7-40.2-127.3-33.7-172.3,14.9s-45.6,123.5-1.5,172.9
	c44.2,49.4,118.6,57.1,172,17.9l57.7,57.7c9.8,9.8,25.6,9.8,35.3,0c9.8-9.7,9.8-25.6,0-35.3L413.7,378.3z M192,312
	c0-61.9,50.1-112,112-112s112,50.1,112,112s-50.1,112-112,112C242.2,423.9,192.1,373.8,192,312z M455,464c-2.4,0-4.7-0.9-6.3-2.6
	L392,404.7c4.4-4.1,8.4-8.5,12.2-13.2l57.2,57.2c2.6,2.6,3.3,6.4,1.9,9.8C461.9,461.8,458.7,464,455,464z"/>
<path class="st0" d="M304,216c-53,0-96,43-96,96s43,96,96,96s96-43,96-96C399.9,259,357,216.1,304,216z M272,312
	c0-17.7,14.3-32,32-32c17.7,0,32,14.3,32,32c0,17.7-14.3,32-32,32C286.3,344,272,329.7,272,312z M262.7,336.3
	c-13.7-5.3-26.1-13.6-36.2-24.3c10.1-10.7,22.4-19.1,36.2-24.3C253.8,302.7,253.8,321.3,262.7,336.3z M345.3,287.7
	c13.7,5.3,26.1,13.6,36.2,24.3c-10.1,10.7-22.4,19.1-36.2,24.3C354.2,321.3,354.2,302.7,345.3,287.7z M304,232
	c35.6,0,66.9,23.6,76.8,57.7c-20.6-15.9-45.8-24.9-71.8-25.5c-3.3-0.3-6.6-0.3-9.9,0c-26.1,0.6-51.2,9.5-71.9,25.5
	C237.2,255.6,268.4,232.1,304,232z M304,392c-35.6,0-66.9-23.5-76.8-57.7c20.6,15.9,45.8,24.8,71.8,25.5c3.3,0.3,6.6,0.3,9.9,0
	c26.1-0.6,51.2-9.5,71.9-25.5C370.9,368.5,339.6,392,304,392z"/>
<path class="st0" d="M320,312c0,8.8-7.2,16-16,16c-8.8,0-16-7.2-16-16s7.2-16,16-16C312.8,296,320,303.2,320,312z"/>
</svg>
