<svg width="513.32" height="513.32" xmlns="http://www.w3.org/2000/svg">

 <g>
  <title>background</title>
  <rect fill="none" id="canvas_background" height="515.32" width="515.32" y="-1" x="-1"/>
 </g>
 <g>
  <title>Layer 1</title>
  <g id="svg_1">
   <g id="svg_2">
    <g id="svg_3">
     <polygon fill="#8bd6d6" id="svg_4" points="220.3,370.018 250.244,399.962 393.545,256.66 250.244,113.358 220.3,143.302 312.27,235.272 0,235.272      0,278.048 312.27,278.048    "/>
     <path fill="#8bd6d6" id="svg_5" d="m278.048,21.388c-100.525,0 -183.94,64.165 -218.161,149.718l47.055,0c29.944,-64.165 96.247,-106.942 171.107,-106.942c106.942,0 192.495,85.553 192.495,192.495s-85.554,192.496 -192.496,192.496c-74.859,0 -141.163,-42.777 -171.107,-106.942l-47.054,0c34.221,85.553 119.775,149.718 218.161,149.718c130.469,0 235.272,-104.803 235.272,-235.272s-104.803,-235.27 -235.272,-235.271l0,0z"/>
    </g>
   </g>
  </g>
  <g id="svg_6"/>
  <g id="svg_7"/>
  <g id="svg_8"/>
  <g id="svg_9"/>
  <g id="svg_10"/>
  <g id="svg_11"/>
  <g id="svg_12"/>
  <g id="svg_13"/>
  <g id="svg_14"/>
  <g id="svg_15"/>
  <g id="svg_16"/>
  <g id="svg_17"/>
  <g id="svg_18"/>
  <g id="svg_19"/>
  <g id="svg_20"/>
 </g>
</svg>