<?xml version="1.0" encoding="utf-8"?>
<!-- Generator: Adobe Illustrator 25.0.0, SVG Export Plug-In . SVG Version: 6.00 Build 0)  -->
<svg version="1.1" id="Layer_5" xmlns="http://www.w3.org/2000/svg" xmlns:xlink="http://www.w3.org/1999/xlink" x="0px" y="0px"
	 viewBox="0 0 512 512" style="enable-background:new 0 0 512 512;" xml:space="preserve">
<style type="text/css">
	.st0{fill:#E34624;}
</style>
<g>
	<path class="st0" d="M452.2,243l-1.4-2.5l42.5-42.5c6.8-6.8,10.6-16,10.6-25.6c0-20-16.3-36.3-36.3-36.3c-4.1,0-8,0.8-11.7,2.1V32
		c0-13.2-10.8-24-24-24H182.6c-6.4,0-12.4,2.5-17,7L95,85.7c-4.5,4.5-7,10.6-7,17v17.8C43.2,124.5,8,162.2,8,208v256
		c0,22.1,17.9,40,40,40h96c22.1,0,40-17.9,40-40v-8h192h8h113.4L480,351.2C479.8,313.5,470.3,276.1,452.2,243z M463.8,345.9
		l-78,21.3l-18.8-15c-9.5-7.6-15-19-15-31.2V256v-8c8.8,0,16,7.2,16,16v56h16v-12.7l55-55C454.4,281.1,462.9,313.3,463.8,345.9z
		 M352,232c-8.8,0-16,7.2-16,16v8c0,4.4-3.6,8-8,8s-8-3.6-8-8v-8c0-17.6,14.4-32,32-32h20.7l-16.4,16.4
		C354.8,232.2,353.5,232,352,232L352,232z M264.4,368.6l10.5-26.3l22.8,22.8l-26.3,10.5c-3.4,1.4-7.4-1.4-7.4-5
		C264,369.9,264.1,369.2,264.4,368.6z M312,356.7L283.3,328l48.4-48.4c1.5-0.2,2.9-0.6,4.3-1.1v42.4c0,3.6,0.4,7.2,1.1,10.7
		L312,356.7z M305.5,264H216v-32h90.8c-1.8,5-2.8,10.4-2.8,16v8C304,258.8,304.6,261.5,305.5,264z M216,280h92.7l-32,32H216V280z
		 M216,328h47.4l-12.8,32H216L216,328z M216,376h32.8c2.4,9.2,10.7,16,20.6,16c2.7,0,5.4-0.5,8-1.5L296,383v25h-80L216,376z
		 M312,376.6l4.5-1.8l26.6-26.6c0.3,0.5,0.6,1,0.9,1.6V408h-32V376.6z M360,367l16,12.8V408h-16V367z M488,172.3
		c0,5.4-2.1,10.5-5.9,14.3L384,284.7V264c0-10-4.7-18.9-12-24.7l81.3-81.3c3.8-3.8,8.9-5.9,14.3-5.9C478.9,152,488,161.1,488,172.3
		L488,172.3z M168,35.3V80c0,4.4-3.6,8-8,8h-44.7L168,35.3z M96,136c39.7,0,72,32.3,72,72s-32.3,72-72,72s-72-32.3-72-72
		S56.3,136,96,136L96,136z M56,286.3c12,6.2,25.6,9.7,40,9.7s28-3.6,40-9.7V328H56V286.3z M144,488H48c-13.2,0-24-10.8-24-24V258.4
		c4.6,6.5,9.9,12.4,16,17.4V328c0,8.8,7.2,16,16,16h80c8.8,0,16-7.2,16-16v-52.2c6.1-5,11.4-10.9,16-17.4V464
		C168,477.2,157.2,488,144,488z M184,440V208c0-45.8-35.2-83.5-80-87.6V104h56c13.2,0,24-10.8,24-24V24h248c4.4,0,8,3.6,8,8v116.7
		L388.7,200H352c-14.2,0-26.9,6.2-35.7,16H200v208h176v16H184z M392,440v-57.9l73.6-20.1l13,78H392z"/>
	<path class="st0" d="M88,246.8V264h16v-17.2c9.2-2.9,16-11.5,16-21.7c0-8.7-4.8-16.5-12.6-20.4L91.8,197c-2.3-1.2-3.8-3.5-3.8-6.1
		c0-3.8,3.1-6.8,6.8-6.8h2.3c3.8,0,6.8,3.1,6.8,6.8v9.2h16v-9.2c0-10.2-6.8-18.7-16-21.7V152H88v17.2c-9.2,2.9-16,11.5-16,21.7
		c0,8.7,4.8,16.5,12.6,20.4l15.6,7.8c2.3,1.2,3.8,3.5,3.8,6.1c0,3.8-3.1,6.8-6.8,6.8h-2.3c-3.8,0-6.8-3.1-6.8-6.8V216H72v9.2
		C72,235.4,78.8,243.9,88,246.8z"/>
	<path class="st0" d="M136,360H56c-8.8,0-16,7.2-16,16v80c0,8.8,7.2,16,16,16h80c8.8,0,16-7.2,16-16v-80
		C152,367.2,144.8,360,136,360z M136,392h-16v-16h16V392z M104,456H88v-16h16V456z M104,424H88v-16h16V424z M72,424H56v-16h16V424z
		 M88,392v-16h16v16H88z M72,376v16H56v-16H72z M56,440h16v16H56V440z M120,456v-48h16l0,48H120z"/>
	<path class="st0" d="M424,40H200v48h224V40z M408,72H216V56h192V72z"/>
	<path class="st0" d="M200,104h224v16H200V104z"/>
	<path class="st0" d="M200,136h224v16H200V136z"/>
	<path class="st0" d="M200,168h128v16H200V168z"/>
</g>
</svg>
