<?xml version="1.0" encoding="utf-8"?>
<!-- Generator: Adobe Illustrator 25.0.0, SVG Export Plug-In . SVG Version: 6.00 Build 0)  -->
<svg version="1.1" id="Capa_1" xmlns="http://www.w3.org/2000/svg" xmlns:xlink="http://www.w3.org/1999/xlink" x="0px" y="0px"
	 viewBox="0 0 94.7 94.7" style="enable-background:new 0 0 94.7 94.7;" xml:space="preserve">
<style type="text/css">
	.st0{fill:#E34624;}
</style>
<g>
	<g>
		<path class="st0" d="M82.4,9.1h9.3v74.2h-9.3V9.1z M63.8,11.8l-1.3,0.4c-1.6,0.5-3.5-0.2-4.2-1.6c-0.3-0.7-0.3-1.4,0-2
			c0.3-0.8,1-1.4,1.9-1.7l14.6-4.5l1.8,13c0.1,0.7-0.1,1.3-0.5,1.9c-0.5,0.7-1.4,1.1-2.4,1.2c-0.1,0-0.2,0-0.4,0
			c-1.7,0-3.1-1.1-3.3-2.4l-0.2-2C53,37.5,14.2,62.5,12.5,63.6c-0.6,0.4-1.3,0.6-2,0.6c-1,0-1.9-0.4-2.5-1c-0.6-0.6-0.8-1.3-0.8-2.1
			c0.1-0.8,0.6-1.5,1.3-2C8.9,58.9,47.4,34,63.8,11.8z M74.9,25.6v57.7h-9.3V25.6H74.9z M58.5,42.8v40.6h-9.3V42.8H58.5z M41.6,60.6
			v22.7h-9.3V60.6H41.6z M23.8,69.5v13.8h-9.3V69.5H23.8z M94.7,92.2H0v-6.9h94.7L94.7,92.2L94.7,92.2z"/>
	</g>
</g>
</svg>
