<?xml version="1.0" encoding="utf-8"?>
<!-- Generator: Adobe Illustrator 25.0.0, SVG Export Plug-In . SVG Version: 6.00 Build 0)  -->
<svg version="1.1" id="Слой_1" xmlns="http://www.w3.org/2000/svg" xmlns:xlink="http://www.w3.org/1999/xlink" x="0px" y="0px"
	 viewBox="0 0 513.3 513.3" style="enable-background:new 0 0 513.3 513.3;" xml:space="preserve">
<style type="text/css">
	.st0{fill:none;}
	.st1{fill:#8BD6D6;}
</style>
<g>
	<rect id="canvas_background" x="-1" y="-1" class="st0" width="515.3" height="515.3"/>
</g>
<g>
	<g id="svg_1" transform="rotate(-180 256.6600036621094,256.65948486328125) ">
		<g id="svg_2">
			<g id="svg_3">
				<polygon id="svg_4" class="st1" points="293,143.3 263.1,113.4 119.8,256.7 263.1,400 293,370 201.1,278 513.3,278 513.3,235.3 
					201.1,235.3 				"/>
				<path id="svg_5" class="st1" d="M235.3,491.9c100.5,0,183.9-64.2,218.2-149.7h-47.1c-29.9,64.2-96.2,106.9-171.1,106.9
					c-106.9,0-192.5-85.6-192.5-192.5S128.3,64.2,235.3,64.2c74.9,0,141.2,42.8,171.1,106.9h47.1C419.2,85.6,333.7,21.4,235.3,21.4
					C104.8,21.4,0,126.2,0,256.7S104.8,491.9,235.3,491.9L235.3,491.9L235.3,491.9z"/>
			</g>
		</g>
	</g>
	<g id="svg_6">
	</g>
	<g id="svg_7">
	</g>
	<g id="svg_8">
	</g>
	<g id="svg_9">
	</g>
	<g id="svg_10">
	</g>
	<g id="svg_11">
	</g>
	<g id="svg_12">
	</g>
	<g id="svg_13">
	</g>
	<g id="svg_14">
	</g>
	<g id="svg_15">
	</g>
	<g id="svg_16">
	</g>
	<g id="svg_17">
	</g>
	<g id="svg_18">
	</g>
	<g id="svg_19">
	</g>
	<g id="svg_20">
	</g>
</g>
</svg>
