<?xml version="1.0" encoding="utf-8"?>
<!-- Generator: Adobe Illustrator 25.0.0, SVG Export Plug-In . SVG Version: 6.00 Build 0)  -->
<svg version="1.1" id="Слой_1" xmlns="http://www.w3.org/2000/svg" xmlns:xlink="http://www.w3.org/1999/xlink" x="0px" y="0px"
	 viewBox="0 0 555 555" style="enable-background:new 0 0 555 555;" xml:space="preserve">
<style type="text/css">
	.st0{fill:#E34624;stroke:#F49D2E;stroke-width:7;stroke-miterlimit:10;}
	.st1{fill:#FFFFFF;stroke:#F49D2E;stroke-width:7;stroke-miterlimit:10;}
	.st2{fill:#E34624;}
	.st3{fill:#FFFFFF;}
</style>
<path class="st0" d="M526.5,551.5h-498c-13.75,0-25-11.25-25-25v-498c0-13.75,11.25-25,25-25h498c13.75,0,25,11.25,25,25v498
	C551.5,540.25,540.25,551.5,526.5,551.5z"/>
<path class="st1" d="M350.68,38.68l3.83,59.67c0.79,12.28,14.43,19.25,24.84,12.69l50.59-31.87c13.57-8.55,30,5.68,23.46,20.33
	l-24.34,54.61c-5.01,11.24,3.83,23.75,16.1,22.78l59.61-4.71c15.99-1.26,23.92,18.97,11.33,28.91l-46.93,37.04
	c-9.66,7.62-7.65,22.81,3.67,27.65l54.97,23.53c14.75,6.31,12.37,27.91-3.4,30.86l-58.77,10.99c-12.1,2.26-17.37,16.64-9.6,26.19
	l37.74,46.38c10.12,12.44-2.02,30.46-17.35,25.74l-57.15-17.58c-11.76-3.62-23.11,6.66-20.67,18.72l11.86,58.6
	c3.18,15.72-15.95,26.03-27.33,14.73l-42.43-42.13c-8.73-8.67-23.56-4.84-27,6.97l-16.73,57.4c-4.49,15.4-26.22,15.64-31.04,0.34
	l-17.99-57.02c-3.7-11.74-18.61-15.24-27.15-6.37l-41.49,43.05c-11.13,11.55-30.48,1.66-27.65-14.12l10.57-58.85
	c2.17-12.11-9.4-22.14-21.08-18.26l-56.75,18.84c-15.22,5.05-27.76-12.69-17.92-25.35l36.7-47.2c7.55-9.71,1.97-23.97-10.18-25.97
	l-59-9.69c-15.83-2.6-18.69-24.14-4.08-30.78l54.44-24.74c11.2-5.09,12.88-20.31,3.06-27.72l-47.74-36
	c-12.81-9.66-5.33-30.06,10.69-29.15l59.7,3.4c12.29,0.7,20.85-12,15.59-23.13l-25.54-54.06c-6.85-14.5,9.25-29.09,23.01-20.84
	l51.28,30.75c10.55,6.33,24.03-0.94,24.55-13.23l2.51-59.74c0.67-16.03,21.71-21.46,30.06-7.76l31.12,51.06
	c6.4,10.51,21.72,10.34,27.89-0.31l29.98-51.73C328.5,17.7,349.65,22.67,350.68,38.68z"/>
<circle class="st2" cx="280" cy="280" r="161"/>
<circle class="st3" cx="328.93" cy="471.98" r="11.98"/>
<circle class="st3" cx="413.7" cy="426.57" r="11.98"/>
<circle class="st3" cx="467.49" cy="346.72" r="11.98"/>
<circle class="st3" cx="478.49" cy="251.23" r="11.98"/>
<circle class="st3" cx="442.81" cy="160.96" r="11.98"/>
<circle class="st3" cx="369.81" cy="98.17" r="11.98"/>
<circle class="st3" cx="276.26" cy="76.17" r="11.98"/>
<circle class="st3" cx="183.34" cy="100.17" r="11.98"/>
<circle class="st3" cx="111.68" cy="165.62" r="11.98"/>
<circle class="st3" cx="79.68" cy="255.91" r="11.98"/>
<circle class="st3" cx="91.68" cy="351.09" r="11.98"/>
<circle class="st3" cx="146.68" cy="429.49" r="11.98"/>
<circle class="st3" cx="233.09" cy="472.64" r="11.98"/>
</svg>
